<?xml version="1.0" standalone="no"?>
<svg xmlns:xlink="http://www.w3.org/1999/xlink" id="wave" style="transform:rotate(0deg); transition: 0.3s" viewBox="0 0 1440 490" version="1.1" xmlns="http://www.w3.org/2000/svg"><defs><linearGradient id="sw-gradient-0" x1="0" x2="0" y1="1" y2="0"><stop stop-color="rgba(78, 226, 71, 1)" offset="0%"/><stop stop-color="rgba(0, 0, 0, 1)" offset="100%"/></linearGradient></defs><path style="transform:translate(0, 0px); opacity:1" fill="url(#sw-gradient-0)" d="M0,0L60,8.2C120,16,240,33,360,89.8C480,147,600,245,720,302.2C840,359,960,376,1080,375.7C1200,376,1320,359,1440,310.3C1560,261,1680,180,1800,196C1920,212,2040,327,2160,367.5C2280,408,2400,376,2520,367.5C2640,359,2760,376,2880,375.7C3000,376,3120,359,3240,343C3360,327,3480,310,3600,326.7C3720,343,3840,392,3960,408.3C4080,425,4200,408,4320,383.8C4440,359,4560,327,4680,318.5C4800,310,4920,327,5040,334.8C5160,343,5280,343,5400,302.2C5520,261,5640,180,5760,122.5C5880,65,6000,33,6120,81.7C6240,131,6360,261,6480,334.8C6600,408,6720,425,6840,375.7C6960,327,7080,212,7200,212.3C7320,212,7440,327,7560,351.2C7680,376,7800,310,7920,277.7C8040,245,8160,245,8280,228.7C8400,212,8520,180,8580,163.3L8640,147L8640,490L8580,490C8520,490,8400,490,8280,490C8160,490,8040,490,7920,490C7800,490,7680,490,7560,490C7440,490,7320,490,7200,490C7080,490,6960,490,6840,490C6720,490,6600,490,6480,490C6360,490,6240,490,6120,490C6000,490,5880,490,5760,490C5640,490,5520,490,5400,490C5280,490,5160,490,5040,490C4920,490,4800,490,4680,490C4560,490,4440,490,4320,490C4200,490,4080,490,3960,490C3840,490,3720,490,3600,490C3480,490,3360,490,3240,490C3120,490,3000,490,2880,490C2760,490,2640,490,2520,490C2400,490,2280,490,2160,490C2040,490,1920,490,1800,490C1680,490,1560,490,1440,490C1320,490,1200,490,1080,490C960,490,840,490,720,490C600,490,480,490,360,490C240,490,120,490,60,490L0,490Z"/></svg>