<svg xmlns="http://www.w3.org/2000/svg" xmlns:xlink="http://www.w3.org/1999/xlink" width="250" zoomAndPan="magnify" viewBox="0 0 187.5 74.999997" height="100" preserveAspectRatio="xMidYMid meet" version="1.0"><defs><g/><clipPath id="ef402604ae"><path d="M 27 18.238281 L 47 18.238281 L 47 37 L 27 37 Z M 27 18.238281 " clip-rule="nonzero"/></clipPath><clipPath id="4be398d364"><path d="M 37 27 L 54.605469 27 L 54.605469 46 L 37 46 Z M 37 27 " clip-rule="nonzero"/></clipPath><clipPath id="d1677644f6"><path d="M 27 36 L 47 36 L 47 54.890625 L 27 54.890625 Z M 27 36 " clip-rule="nonzero"/></clipPath><clipPath id="180adc835d"><path d="M 7 18.238281 L 28 18.238281 L 28 37 L 7 37 Z M 7 18.238281 " clip-rule="nonzero"/></clipPath><clipPath id="44886fa87d"><path d="M 7 36 L 28 36 L 28 54.890625 L 7 54.890625 Z M 7 36 " clip-rule="nonzero"/></clipPath></defs><path fill="#00aeef" d="M 27.300781 46.875 L 17.101562 36.558594 L 20.042969 33.582031 L 27.300781 26.242188 L 34.558594 33.582031 L 37.5 36.558594 Z M 27.300781 46.875 " fill-opacity="1" fill-rule="nonzero"/><g clip-path="url(#ef402604ae)"><path fill="#33bef2" d="M 27.300781 26.242188 L 33.566406 19.902344 C 35.191406 18.257812 37.828125 18.257812 39.453125 19.902344 L 46.710938 27.242188 L 37.5 36.558594 L 34.558594 33.582031 C 34.558594 33.582031 34.558594 33.582031 34.554688 33.582031 Z M 27.300781 26.242188 " fill-opacity="1" fill-rule="nonzero"/></g><g clip-path="url(#4be398d364)"><path fill="#66cef5" d="M 37.5 36.558594 L 46.710938 27.242188 L 52.976562 33.582031 C 54.601562 35.226562 54.601562 37.890625 52.976562 39.535156 L 46.710938 45.875 Z M 37.5 36.558594 " fill-opacity="1" fill-rule="nonzero"/></g><g clip-path="url(#d1677644f6)"><path fill="#99dff9" d="M 37.5 36.558594 L 46.707031 45.875 L 39.449219 53.214844 C 37.828125 54.859375 35.191406 54.859375 33.566406 53.214844 L 27.296875 46.875 Z M 37.5 36.558594 " fill-opacity="1" fill-rule="nonzero"/></g><g clip-path="url(#180adc835d)"><path fill="#002c3c" d="M 17.101562 36.558594 L 7.890625 27.242188 L 15.144531 19.902344 C 16.769531 18.257812 19.40625 18.257812 21.03125 19.902344 L 27.011719 25.953125 L 27.296875 26.242188 L 20.042969 33.582031 C 20.042969 33.582031 20.042969 33.582031 20.039062 33.582031 Z M 17.101562 36.558594 " fill-opacity="1" fill-rule="nonzero"/></g><path fill="#005778" d="M 17.101562 36.558594 L 7.890625 45.875 L 1.621094 39.535156 C -0.00390625 37.890625 -0.00390625 35.226562 1.621094 33.582031 L 7.890625 27.242188 Z M 17.101562 36.558594 " fill-opacity="1" fill-rule="nonzero"/><g clip-path="url(#44886fa87d)"><path fill="#0083b3" d="M 15.144531 53.214844 L 7.890625 45.875 L 17.101562 36.558594 L 27.300781 46.875 L 21.03125 53.214844 C 19.40625 54.859375 16.773438 54.859375 15.144531 53.214844 Z M 15.144531 53.214844 " fill-opacity="1" fill-rule="nonzero"/></g><g fill="#38b6ff" fill-opacity="1"><g transform="translate(62.568856, 43.837253)"><g><path d="M 12.15625 -9.78125 C 11.675781 -10.394531 11.101562 -10.878906 10.4375 -11.234375 C 9.78125 -11.597656 9.128906 -11.78125 8.484375 -11.78125 C 7.734375 -11.78125 7.050781 -11.59375 6.4375 -11.21875 C 5.820312 -10.84375 5.335938 -10.328125 4.984375 -9.671875 C 4.628906 -9.015625 4.453125 -8.285156 4.453125 -7.484375 C 4.453125 -6.679688 4.628906 -5.953125 4.984375 -5.296875 C 5.335938 -4.640625 5.820312 -4.125 6.4375 -3.75 C 7.050781 -3.375 7.734375 -3.1875 8.484375 -3.1875 C 9.085938 -3.1875 9.71875 -3.34375 10.375 -3.65625 C 11.039062 -3.96875 11.632812 -4.390625 12.15625 -4.921875 L 14.421875 -2.5 C 13.617188 -1.644531 12.660156 -0.96875 11.546875 -0.46875 C 10.441406 0.03125 9.347656 0.28125 8.265625 0.28125 C 6.796875 0.28125 5.46875 -0.0546875 4.28125 -0.734375 C 3.101562 -1.410156 2.175781 -2.332031 1.5 -3.5 C 0.820312 -4.675781 0.484375 -5.988281 0.484375 -7.4375 C 0.484375 -8.875 0.828125 -10.171875 1.515625 -11.328125 C 2.210938 -12.484375 3.160156 -13.390625 4.359375 -14.046875 C 5.566406 -14.710938 6.914062 -15.046875 8.40625 -15.046875 C 9.507812 -15.046875 10.597656 -14.816406 11.671875 -14.359375 C 12.742188 -13.898438 13.648438 -13.28125 14.390625 -12.5 Z M 12.15625 -9.78125 "/></g></g></g><g fill="#38b6ff" fill-opacity="1"><g transform="translate(76.777241, 43.837253)"><g><path d="M 6.75 -11.5625 C 7.988281 -11.5625 9.078125 -11.316406 10.015625 -10.828125 C 10.960938 -10.347656 11.695312 -9.664062 12.21875 -8.78125 C 12.738281 -7.90625 13 -6.890625 13 -5.734375 C 13 -4.554688 12.738281 -3.523438 12.21875 -2.640625 C 11.695312 -1.765625 10.960938 -1.082031 10.015625 -0.59375 C 9.078125 -0.113281 7.988281 0.125 6.75 0.125 C 5.507812 0.125 4.414062 -0.113281 3.46875 -0.59375 C 2.519531 -1.082031 1.785156 -1.765625 1.265625 -2.640625 C 0.753906 -3.523438 0.5 -4.554688 0.5 -5.734375 C 0.5 -6.890625 0.753906 -7.90625 1.265625 -8.78125 C 1.785156 -9.664062 2.519531 -10.347656 3.46875 -10.828125 C 4.414062 -11.316406 5.507812 -11.5625 6.75 -11.5625 Z M 6.75 -8.515625 C 6.007812 -8.515625 5.414062 -8.253906 4.96875 -7.734375 C 4.519531 -7.210938 4.296875 -6.53125 4.296875 -5.6875 C 4.296875 -4.820312 4.519531 -4.128906 4.96875 -3.609375 C 5.414062 -3.085938 6.007812 -2.828125 6.75 -2.828125 C 7.488281 -2.828125 8.082031 -3.085938 8.53125 -3.609375 C 8.988281 -4.128906 9.21875 -4.820312 9.21875 -5.6875 C 9.21875 -6.53125 8.988281 -7.210938 8.53125 -7.734375 C 8.070312 -8.253906 7.476562 -8.515625 6.75 -8.515625 Z M 6.75 -8.515625 "/></g></g></g><g fill="#38b6ff" fill-opacity="1"><g transform="translate(89.843876, 43.837253)"><g><path d="M 9.21875 -15.6875 L 12.984375 -15.6875 L 12.984375 0 L 9.21875 0 L 9.21875 -1.484375 C 8.820312 -0.941406 8.335938 -0.535156 7.765625 -0.265625 C 7.191406 0.00390625 6.546875 0.140625 5.828125 0.140625 C 4.773438 0.140625 3.847656 -0.101562 3.046875 -0.59375 C 2.242188 -1.082031 1.617188 -1.773438 1.171875 -2.671875 C 0.722656 -3.566406 0.5 -4.597656 0.5 -5.765625 C 0.5 -6.921875 0.71875 -7.9375 1.15625 -8.8125 C 1.59375 -9.6875 2.207031 -10.363281 3 -10.84375 C 3.789062 -11.320312 4.707031 -11.5625 5.75 -11.5625 C 6.476562 -11.5625 7.132812 -11.421875 7.71875 -11.140625 C 8.3125 -10.859375 8.8125 -10.457031 9.21875 -9.9375 Z M 6.765625 -2.8125 C 7.492188 -2.8125 8.082031 -3.070312 8.53125 -3.59375 C 8.988281 -4.125 9.21875 -4.816406 9.21875 -5.671875 C 9.21875 -6.523438 8.988281 -7.210938 8.53125 -7.734375 C 8.082031 -8.253906 7.492188 -8.515625 6.765625 -8.515625 C 6.035156 -8.515625 5.441406 -8.25 4.984375 -7.71875 C 4.523438 -7.195312 4.296875 -6.515625 4.296875 -5.671875 C 4.296875 -4.816406 4.523438 -4.125 4.984375 -3.59375 C 5.441406 -3.070312 6.035156 -2.8125 6.765625 -2.8125 Z M 6.765625 -2.8125 "/></g></g></g><g fill="#38b6ff" fill-opacity="1"><g transform="translate(103.946542, 43.837253)"><g><path d="M 6.46875 -11.5625 C 8.332031 -11.5625 9.765625 -11.007812 10.765625 -9.90625 C 11.765625 -8.8125 12.265625 -7.304688 12.265625 -5.390625 C 12.265625 -5.097656 12.253906 -4.875 12.234375 -4.71875 L 4.296875 -4.71875 C 4.472656 -4.0625 4.785156 -3.5625 5.234375 -3.21875 C 5.691406 -2.875 6.242188 -2.703125 6.890625 -2.703125 C 7.378906 -2.703125 7.851562 -2.800781 8.3125 -3 C 8.769531 -3.195312 9.191406 -3.488281 9.578125 -3.875 L 11.546875 -1.90625 C 10.953125 -1.238281 10.234375 -0.734375 9.390625 -0.390625 C 8.554688 -0.046875 7.609375 0.125 6.546875 0.125 C 5.328125 0.125 4.257812 -0.113281 3.34375 -0.59375 C 2.425781 -1.070312 1.722656 -1.75 1.234375 -2.625 C 0.742188 -3.5 0.5 -4.515625 0.5 -5.671875 C 0.5 -6.835938 0.742188 -7.867188 1.234375 -8.765625 C 1.734375 -9.660156 2.429688 -10.347656 3.328125 -10.828125 C 4.234375 -11.316406 5.28125 -11.5625 6.46875 -11.5625 Z M 8.609375 -6.71875 C 8.609375 -7.382812 8.410156 -7.914062 8.015625 -8.3125 C 7.628906 -8.71875 7.117188 -8.921875 6.484375 -8.921875 C 5.898438 -8.921875 5.40625 -8.722656 5 -8.328125 C 4.59375 -7.929688 4.328125 -7.394531 4.203125 -6.71875 Z M 8.609375 -6.71875 "/></g></g></g><g fill="#38b6ff" fill-opacity="1"><g transform="translate(116.273158, 43.837253)"><g/></g></g><g fill="#38b6ff" fill-opacity="1"><g transform="translate(121.558999, 43.837253)"><g><path d="M 8.640625 -11.4375 L 12.390625 -11.4375 L 12.390625 -1.015625 C 12.390625 0.046875 12.128906 0.972656 11.609375 1.765625 C 11.085938 2.554688 10.359375 3.164062 9.421875 3.59375 C 8.484375 4.03125 7.398438 4.25 6.171875 4.25 C 5.210938 4.25 4.289062 4.113281 3.40625 3.84375 C 2.519531 3.582031 1.738281 3.222656 1.0625 2.765625 L 2.375 0.171875 C 2.894531 0.523438 3.457031 0.800781 4.0625 1 C 4.664062 1.195312 5.273438 1.296875 5.890625 1.296875 C 6.742188 1.296875 7.414062 1.097656 7.90625 0.703125 C 8.394531 0.304688 8.640625 -0.226562 8.640625 -0.90625 L 8.640625 -2.140625 C 7.878906 -1.140625 6.796875 -0.640625 5.390625 -0.640625 C 4.441406 -0.640625 3.597656 -0.867188 2.859375 -1.328125 C 2.117188 -1.785156 1.539062 -2.429688 1.125 -3.265625 C 0.707031 -4.109375 0.5 -5.070312 0.5 -6.15625 C 0.5 -7.226562 0.703125 -8.171875 1.109375 -8.984375 C 1.515625 -9.796875 2.082031 -10.425781 2.8125 -10.875 C 3.539062 -11.332031 4.375 -11.5625 5.3125 -11.5625 C 6.007812 -11.5625 6.644531 -11.429688 7.21875 -11.171875 C 7.789062 -10.910156 8.265625 -10.535156 8.640625 -10.046875 Z M 6.34375 -3.375 C 7.03125 -3.375 7.582031 -3.617188 8 -4.109375 C 8.425781 -4.609375 8.640625 -5.253906 8.640625 -6.046875 C 8.640625 -6.847656 8.425781 -7.492188 8 -7.984375 C 7.582031 -8.484375 7.03125 -8.734375 6.34375 -8.734375 C 5.65625 -8.734375 5.09375 -8.484375 4.65625 -7.984375 C 4.226562 -7.484375 4.015625 -6.835938 4.015625 -6.046875 C 4.015625 -5.253906 4.226562 -4.609375 4.65625 -4.109375 C 5.09375 -3.617188 5.65625 -3.375 6.34375 -3.375 Z M 6.34375 -3.375 "/></g></g></g><g fill="#38b6ff" fill-opacity="1"><g transform="translate(134.837066, 43.837253)"><g><path d="M 6.46875 -11.5625 C 8.332031 -11.5625 9.765625 -11.007812 10.765625 -9.90625 C 11.765625 -8.8125 12.265625 -7.304688 12.265625 -5.390625 C 12.265625 -5.097656 12.253906 -4.875 12.234375 -4.71875 L 4.296875 -4.71875 C 4.472656 -4.0625 4.785156 -3.5625 5.234375 -3.21875 C 5.691406 -2.875 6.242188 -2.703125 6.890625 -2.703125 C 7.378906 -2.703125 7.851562 -2.800781 8.3125 -3 C 8.769531 -3.195312 9.191406 -3.488281 9.578125 -3.875 L 11.546875 -1.90625 C 10.953125 -1.238281 10.234375 -0.734375 9.390625 -0.390625 C 8.554688 -0.046875 7.609375 0.125 6.546875 0.125 C 5.328125 0.125 4.257812 -0.113281 3.34375 -0.59375 C 2.425781 -1.070312 1.722656 -1.75 1.234375 -2.625 C 0.742188 -3.5 0.5 -4.515625 0.5 -5.671875 C 0.5 -6.835938 0.742188 -7.867188 1.234375 -8.765625 C 1.734375 -9.660156 2.429688 -10.347656 3.328125 -10.828125 C 4.234375 -11.316406 5.28125 -11.5625 6.46875 -11.5625 Z M 8.609375 -6.71875 C 8.609375 -7.382812 8.410156 -7.914062 8.015625 -8.3125 C 7.628906 -8.71875 7.117188 -8.921875 6.484375 -8.921875 C 5.898438 -8.921875 5.40625 -8.722656 5 -8.328125 C 4.59375 -7.929688 4.328125 -7.394531 4.203125 -6.71875 Z M 8.609375 -6.71875 "/></g></g></g><g fill="#38b6ff" fill-opacity="1"><g transform="translate(147.163681, 43.837253)"><g><path d="M 6.46875 -11.5625 C 8.332031 -11.5625 9.765625 -11.007812 10.765625 -9.90625 C 11.765625 -8.8125 12.265625 -7.304688 12.265625 -5.390625 C 12.265625 -5.097656 12.253906 -4.875 12.234375 -4.71875 L 4.296875 -4.71875 C 4.472656 -4.0625 4.785156 -3.5625 5.234375 -3.21875 C 5.691406 -2.875 6.242188 -2.703125 6.890625 -2.703125 C 7.378906 -2.703125 7.851562 -2.800781 8.3125 -3 C 8.769531 -3.195312 9.191406 -3.488281 9.578125 -3.875 L 11.546875 -1.90625 C 10.953125 -1.238281 10.234375 -0.734375 9.390625 -0.390625 C 8.554688 -0.046875 7.609375 0.125 6.546875 0.125 C 5.328125 0.125 4.257812 -0.113281 3.34375 -0.59375 C 2.425781 -1.070312 1.722656 -1.75 1.234375 -2.625 C 0.742188 -3.5 0.5 -4.515625 0.5 -5.671875 C 0.5 -6.835938 0.742188 -7.867188 1.234375 -8.765625 C 1.734375 -9.660156 2.429688 -10.347656 3.328125 -10.828125 C 4.234375 -11.316406 5.28125 -11.5625 6.46875 -11.5625 Z M 8.609375 -6.71875 C 8.609375 -7.382812 8.410156 -7.914062 8.015625 -8.3125 C 7.628906 -8.71875 7.117188 -8.921875 6.484375 -8.921875 C 5.898438 -8.921875 5.40625 -8.722656 5 -8.328125 C 4.59375 -7.929688 4.328125 -7.394531 4.203125 -6.71875 Z M 8.609375 -6.71875 "/></g></g></g><g fill="#38b6ff" fill-opacity="1"><g transform="translate(159.490297, 43.837253)"><g><path d="M 13.3125 0 L 8.875 0 L 6.46875 -4.3125 L 5.3125 -3.109375 L 5.3125 0 L 1.546875 0 L 1.546875 -15.6875 L 5.3125 -15.6875 L 5.3125 -7.5625 L 8.96875 -11.4375 L 13.234375 -11.4375 L 9.046875 -7.015625 Z M 13.3125 0 "/></g></g></g><g fill="#38b6ff" fill-opacity="1"><g transform="translate(172.451219, 43.837253)"><g><path d="M 9.0625 -7.828125 C 7.582031 -8.597656 6.375 -8.984375 5.4375 -8.984375 C 5.113281 -8.984375 4.851562 -8.921875 4.65625 -8.796875 C 4.457031 -8.679688 4.359375 -8.503906 4.359375 -8.265625 C 4.359375 -8.015625 4.507812 -7.8125 4.8125 -7.65625 C 5.125 -7.5 5.617188 -7.328125 6.296875 -7.140625 C 7.117188 -6.898438 7.800781 -6.664062 8.34375 -6.4375 C 8.882812 -6.207031 9.351562 -5.851562 9.75 -5.375 C 10.144531 -4.90625 10.34375 -4.289062 10.34375 -3.53125 C 10.34375 -2.375 9.894531 -1.46875 9 -0.8125 C 8.101562 -0.15625 6.9375 0.171875 5.5 0.171875 C 4.519531 0.171875 3.585938 0.0351562 2.703125 -0.234375 C 1.816406 -0.515625 1.03125 -0.921875 0.34375 -1.453125 L 1.515625 -3.890625 C 2.171875 -3.441406 2.851562 -3.09375 3.5625 -2.84375 C 4.269531 -2.59375 4.941406 -2.46875 5.578125 -2.46875 C 5.941406 -2.46875 6.234375 -2.523438 6.453125 -2.640625 C 6.671875 -2.765625 6.78125 -2.941406 6.78125 -3.171875 C 6.78125 -3.453125 6.617188 -3.671875 6.296875 -3.828125 C 5.984375 -3.984375 5.488281 -4.148438 4.8125 -4.328125 C 4.007812 -4.566406 3.347656 -4.800781 2.828125 -5.03125 C 2.304688 -5.269531 1.851562 -5.617188 1.46875 -6.078125 C 1.082031 -6.546875 0.890625 -7.15625 0.890625 -7.90625 C 0.890625 -9.0625 1.328125 -9.96875 2.203125 -10.625 C 3.078125 -11.28125 4.203125 -11.609375 5.578125 -11.609375 C 6.410156 -11.609375 7.234375 -11.492188 8.046875 -11.265625 C 8.859375 -11.035156 9.625 -10.707031 10.34375 -10.28125 Z M 9.0625 -7.828125 "/></g></g></g></svg>